<svg width="37" height="37" viewBox="0 0 37 37" fill="none" xmlns="http://www.w3.org/2000/svg">
<path fill-rule="evenodd" clip-rule="evenodd" d="M18.1818 36.3635C23.0039 36.3635 27.6285 34.4479 31.0382 31.0382C34.4479 27.6285 36.3635 23.0039 36.3635 18.1818C36.3635 13.3597 34.4479 8.73505 31.0382 5.32531C27.6285 1.91557 23.0039 0 18.1818 0C13.3597 0 8.73505 1.91557 5.32531 5.32531C1.91557 8.73505 0 13.3597 0 18.1818C0 23.0039 1.91557 27.6285 5.32531 31.0382C8.73505 34.4479 13.3597 36.3635 18.1818 36.3635ZM26.6067 15.2431C27.0207 14.8145 27.2498 14.2404 27.2446 13.6445C27.2394 13.0486 27.0004 12.4786 26.579 12.0572C26.1577 11.6358 25.5876 11.3968 24.9917 11.3916C24.3958 11.3864 23.8217 11.6155 23.3931 12.0295L15.909 19.5136L12.9704 16.5749C12.5418 16.1609 11.9677 15.9319 11.3718 15.937C10.7759 15.9422 10.2058 16.1812 9.78447 16.6026C9.36309 17.024 9.12407 17.594 9.11889 18.1899C9.11371 18.7858 9.34279 19.3599 9.75678 19.7886L14.3022 24.334C14.7284 24.7601 15.3064 24.9994 15.909 24.9994C16.5117 24.9994 17.0896 24.7601 17.5158 24.334L26.6067 15.2431Z" fill="#6D92F5"/>
</svg>
