<svg width="18" height="18" viewBox="0 0 18 18" fill="none" xmlns="http://www.w3.org/2000/svg">
<path d="M8.75982 0.213355C8.7936 -0.0711185 9.2064 -0.0711185 9.24018 0.213355L9.52334 2.59983C9.88899 5.68142 12.3186 8.11101 15.4001 8.47666L17.7866 8.75982C18.0711 8.7936 18.0711 9.2064 17.7866 9.24018L15.4001 9.52334C12.3186 9.88899 9.88899 12.3186 9.52334 15.4001L9.24018 17.7866C9.2064 18.0711 8.7936 18.0711 8.75982 17.7866L8.47666 15.4001C8.11101 12.3186 5.68142 9.88899 2.59983 9.52334L0.213355 9.24018C-0.0711185 9.2064 -0.0711185 8.7936 0.213355 8.75982L2.59983 8.47666C5.68142 8.11101 8.11101 5.68142 8.47666 2.59983L8.75982 0.213355Z" fill="url(#paint0_linear_973_4128)"/>
<defs>
<linearGradient id="paint0_linear_973_4128" x1="0" y1="9" x2="18" y2="9" gradientUnits="userSpaceOnUse">
<stop stop-color="#2461EB"/>
<stop offset="1" stop-color="#D4C6FB"/>
</linearGradient>
</defs>
</svg>
