<svg width="30" height="30" viewBox="0 0 30 30" fill="none" xmlns="http://www.w3.org/2000/svg">
<path fill-rule="evenodd" clip-rule="evenodd" d="M14.9983 26.9995C18.1809 26.9995 21.2331 25.7352 23.4836 23.4848C25.734 21.2344 26.9983 18.1821 26.9983 14.9995C26.9983 11.8169 25.734 8.76467 23.4836 6.51423C21.2331 4.26379 18.1809 2.99951 14.9983 2.99951C11.8157 2.99951 8.76345 4.26379 6.51301 6.51423C4.26257 8.76467 2.99829 11.8169 2.99829 14.9995C2.99829 18.1821 4.26257 21.2344 6.51301 23.4848C8.76345 25.7352 11.8157 26.9995 14.9983 26.9995ZM20.5588 13.06C20.832 12.7771 20.9832 12.3982 20.9798 12.0049C20.9764 11.6116 20.8186 11.2354 20.5405 10.9573C20.2624 10.6792 19.8862 10.5214 19.4929 10.518C19.0996 10.5146 18.7207 10.6658 18.4378 10.939L13.4983 15.8785L11.5588 13.939C11.2759 13.6658 10.897 13.5146 10.5037 13.518C10.1104 13.5214 9.73417 13.6792 9.45606 13.9573C9.17795 14.2354 9.0202 14.6116 9.01678 15.0049C9.01336 15.3982 9.16455 15.7771 9.43779 16.06L12.4378 19.06C12.7191 19.3412 13.1005 19.4992 13.4983 19.4992C13.896 19.4992 14.2775 19.3412 14.5588 19.06L20.5588 13.06Z" fill="#2C64F1"/>
</svg>
