<svg width="36" height="36" viewBox="0 0 36 36" fill="none" xmlns="http://www.w3.org/2000/svg">
<path d="M19.7891 18.1245C19.8485 18.1245 19.9108 18.1245 19.9703 18.1419H20.0552C20.4682 18.1416 20.8728 18.0228 21.223 17.799C21.5733 17.5752 21.8553 17.2554 22.0369 16.8758C22.0705 16.7993 22.0879 16.7163 22.0879 16.6324C22.0879 16.5486 22.0705 16.4656 22.0369 16.3891C22.0053 16.3121 21.9579 16.2429 21.8978 16.1864C21.8377 16.1299 21.7663 16.0874 21.6887 16.0617C21.6312 16.042 21.5709 16.0322 21.5103 16.0327C21.4016 16.0319 21.2948 16.0632 21.203 16.1228C21.1111 16.1824 21.0379 16.2678 20.9923 16.3688C20.9053 16.5487 20.7709 16.7001 20.6044 16.8061C20.4378 16.912 20.2457 16.9683 20.0495 16.9685H20.0099C19.7825 16.9607 19.5641 16.875 19.3899 16.7252C19.2842 16.6375 19.1523 16.5895 19.0162 16.589C18.8722 16.5888 18.7335 16.6447 18.6284 16.7454C18.5681 16.8018 18.5204 16.8709 18.4887 16.9479C18.4569 17.0249 18.4418 17.108 18.4444 17.1916C18.4476 17.2754 18.4679 17.3576 18.504 17.433C18.5401 17.5083 18.5911 17.5751 18.6539 17.6291C18.9774 17.9032 19.3718 18.0753 19.7891 18.1245Z" fill="#F0F1F1"/>
<path d="M32.9793 10.6239C31.8388 8.81062 30.3583 7.24663 28.6236 6.02234C26.8889 4.79806 24.9343 3.93775 22.8727 3.49116L22.7 3.45639C22.6567 3.45353 22.6132 3.45353 22.5698 3.45639L22.1848 1.38494C22.1115 0.981777 21.8979 0.619477 21.5835 0.365194C21.2692 0.11091 20.8754 -0.0181096 20.4752 0.00205082C20.0749 0.0222112 19.6954 0.190185 19.407 0.474834C19.1186 0.759483 18.9407 1.1415 18.9065 1.55007L18.765 3.15509C14.2949 3.3521 9.98894 5.38879 7.15796 8.96386C6.95521 9.23877 6.78333 9.53615 6.64555 9.85039C5.93217 10.0341 5.30536 10.4703 4.87619 11.0817C4.73433 11.0643 4.59159 11.0556 4.44871 11.0556C3.76654 11.0538 3.09881 11.2567 2.52821 11.6393C1.9576 12.0219 1.50915 12.5674 1.23839 13.2082L1.20725 13.2864C1.05636 13.6454 1.04858 14.0506 1.18557 14.4154C1.32256 14.7803 1.59347 15.0758 1.94047 15.2391L2.50666 15.4998L1.98576 17.3047C1.5045 17.1802 0.980767 17.0527 0.689176 17.2468C0.397585 17.4409 0.281516 17.8697 0.142798 18.2927L0.0437133 18.7475C0.0324697 18.8001 0.0239647 18.8533 0.0182345 18.9069C-0.143131 20.3554 0.779768 21.5606 2.26037 21.804L3.67586 22.0474C3.67021 22.1197 3.67021 22.1923 3.67586 22.2646C4.09749 24.8027 5.09394 27.2045 6.58544 29.2777C8.07695 31.3509 10.0221 33.038 12.265 34.2038C12.4745 34.3139 13.4937 34.7832 13.7626 34.8788C14.5404 35.1946 15.3412 35.4474 16.1576 35.635C17.2604 35.8761 18.3847 35.9985 19.5123 36C23.5735 35.9981 27.4824 34.4179 30.4484 31.579C30.7513 31.2892 31.6969 30.2608 31.963 29.9305C34.1069 27.2371 35.3604 23.9169 35.543 20.448C35.7257 16.9791 34.828 13.5404 32.9793 10.6268V10.6239ZM20.3616 1.67175C20.3644 1.62259 20.3849 1.57621 20.419 1.54151C20.4532 1.50681 20.4986 1.48623 20.5467 1.48372C20.5947 1.48121 20.642 1.49694 20.6794 1.52789C20.7169 1.55885 20.7418 1.60286 20.7495 1.65147L21.5988 6.17102C21.5988 6.17102 20.2399 5.90448 20.0785 5.03534L20.3616 1.67175ZM19.9427 6.51578C20.0409 6.62053 20.1469 6.71739 20.2597 6.80549C20.5147 7.00194 20.8025 7.1492 21.109 7.24006C21.2884 7.29467 21.4722 7.33249 21.6582 7.35305H21.7885L22.5019 9.78086C22.0599 9.77884 21.6253 9.6654 21.2364 9.45058C20.7838 9.24572 20.3879 8.92917 20.0842 8.52929C20.0134 8.42884 19.9482 8.32438 19.8889 8.2164L19.8096 8.07154L19.7445 7.93827L19.9427 6.51578ZM19.5067 10.4733L19.6171 9.46797C19.6794 9.55488 19.7501 9.6389 19.8238 9.72291C19.8974 9.80693 19.9766 9.89385 20.0587 9.97497C20.6298 10.5552 21.3764 10.9198 22.1763 11.0092C22.2725 11.0092 22.3716 11.015 22.4736 11.0266C22.5755 11.0266 22.6802 11.0266 22.785 11.0266L23.6116 14.0657C23.6148 14.0779 23.6138 14.0907 23.6088 14.1022C23.6038 14.1137 23.5952 14.1231 23.5843 14.1288C23.5734 14.1346 23.5609 14.1363 23.5488 14.1338C23.5368 14.1313 23.526 14.1247 23.5182 14.115C23.3386 13.8824 23.1291 13.6758 22.8954 13.5008C22.7869 13.4223 22.6745 13.3498 22.5585 13.2835L20.976 12.3883L19.3963 11.496L19.5067 10.4733ZM17.6071 14.2656L18.4564 12.7273L21.9187 14.7118C22.1282 14.8311 22.312 14.9926 22.4589 15.1865C22.6059 15.3804 22.713 15.6027 22.7738 15.8401C22.8347 16.0774 22.848 16.3249 22.8129 16.5677C22.7778 16.8104 22.6951 17.0434 22.5698 17.2526L22.2867 17.7451C21.9675 18.2745 21.4592 18.6556 20.8699 18.8076C20.2805 18.9596 19.6564 18.8705 19.1302 18.5592L18.6546 18.2695C18.001 17.8767 17.5248 17.2365 17.3288 16.4873C17.1328 15.7381 17.2328 14.94 17.6071 14.2656ZM12.6699 12.8953L13.4625 11.496C13.6012 11.2508 13.807 11.0527 14.0546 10.926C14.3021 10.7993 14.5806 10.7497 14.8554 10.7833C15.0406 10.8044 15.2196 10.8635 15.382 10.9571L18.2129 12.5824L12.6699 12.8953ZM18.9716 4.63553C18.9009 5.26131 18.8471 5.70458 18.8442 5.70458L18.6093 7.24296L18.2044 10.8325L16.1095 9.6302C15.7773 9.43722 15.4104 9.31502 15.0309 9.27096C14.4695 9.2019 13.9006 9.3022 13.3941 9.55955C12.8877 9.8169 12.4657 10.2201 12.1801 10.7195L11.3053 12.2869C11.3053 12.2869 9.79926 10.1401 8.27903 9.91992C9.60312 8.32524 11.2383 7.03139 13.0797 6.12137C14.921 5.21135 16.9279 4.70525 18.9716 4.63553ZM12.9218 32.8856C10.8835 31.8217 9.11626 30.2851 7.76114 28.3984C6.40602 26.5116 5.50051 24.3268 5.11683 22.0184L6.77578 22.3342C8.38439 22.6401 9.92925 23.2281 11.3421 24.0725C12.0272 24.481 12.6331 24.8489 12.7406 24.9416L13.2842 25.3675C14.1643 26.0546 15.1604 26.5702 16.2228 26.8885C16.2228 26.8885 14.36 30.3187 12.9218 32.8856ZM29.4547 30.4809C26.7545 33.0555 23.2029 34.4899 19.5123 34.4964C17.7242 34.495 15.9516 34.1561 14.2835 33.4969L17.8392 27.2159C19.0198 27.3723 19.8775 27.1116 20.5032 26.3467C20.61 26.2492 20.6754 26.1129 20.6854 25.9668C20.6955 25.8207 20.6494 25.6763 20.557 25.5645C20.1946 25.0604 19.6284 25.5384 19.6284 25.5384C19.0452 25.944 18.6602 26.0078 17.8166 25.8281C16.5094 25.5563 15.2786 24.9869 14.2156 24.1623L13.6126 23.6871C13.0483 23.2453 12.4456 22.8574 11.8121 22.5283L11.5828 22.4095C10.5772 21.9119 9.50779 21.5627 8.40642 21.3723L2.501 20.3496C2.2179 20.3033 1.36861 20.0599 1.46769 19.0807L1.56678 18.6229C2.94864 19.0912 4.37035 19.4258 5.81325 19.6225L6.30584 19.6978C6.58893 19.7412 6.87203 19.7789 7.15513 19.8108C8.00972 19.9194 8.87017 19.9726 9.73132 19.9701C9.9102 19.9644 10.0874 19.9332 10.2579 19.8774L10.6429 19.7557C11.0627 19.6293 11.4313 19.3671 11.6932 19.0083C11.8904 18.7349 12.0173 18.4153 12.0624 18.0786C12.1074 17.742 12.069 17.3992 11.9508 17.0817C11.8208 16.7403 11.6044 16.4404 11.3238 16.2129C11.0433 15.9853 10.7086 15.8382 10.3541 15.7866C9.4284 15.7548 4.33264 14.9175 2.50383 14.1295L2.60292 13.8166C2.8028 13.3381 3.17069 12.9536 3.63398 12.7391C4.09728 12.5245 4.62232 12.4955 5.1055 12.6577L5.32915 12.733C5.39306 12.7488 5.4602 12.7432 5.5208 12.7171C5.58139 12.6911 5.63228 12.6459 5.66604 12.5882L5.77644 12.3767C5.91766 12.1072 6.11375 11.8718 6.35146 11.6864C6.58917 11.501 6.86297 11.37 7.15438 11.3022C7.44579 11.2344 7.74803 11.2313 8.0407 11.2932C8.33336 11.3551 8.60964 11.4806 8.85089 11.6611C8.96653 11.7467 9.07368 11.8438 9.17078 11.9508L9.23873 12.0232C9.26595 12.0476 9.29062 12.0748 9.31233 12.1044L10.6627 13.7441C10.7725 13.8766 10.9104 13.9815 11.066 14.0508C11.2216 14.1201 11.3906 14.152 11.5601 14.144L16.4379 13.9238C15.9973 14.8636 15.9178 15.9385 16.2151 16.9354C16.5124 17.9324 17.1648 18.7787 18.0431 19.3067L18.5243 19.5964C18.9387 19.8434 19.3984 20.0003 19.8747 20.057C20.539 20.135 21.2112 20.0178 21.8128 19.7192C22.4143 19.4206 22.9204 18.953 23.2719 18.3709L27.0286 11.9508L26.5445 19.4834L29.4349 30.4925L29.4547 30.4809ZM3.40125 17.6727L3.90517 15.833C4.62707 16.0068 5.53015 16.2125 6.45305 16.4124L6.95413 16.5138C8.76029 16.847 10.1956 16.9745 10.1956 16.9745C10.3378 16.997 10.4716 17.0577 10.5835 17.1503C10.6954 17.2429 10.7813 17.3642 10.8326 17.5017C10.9092 17.704 10.9092 17.9282 10.8326 18.1304C10.7731 18.2985 10.6231 18.678 9.88419 18.7099C8.84805 18.791 5.97178 18.3709 3.40125 17.6727ZM30.6211 29.2612C30.6211 29.1917 27.9345 19.3298 27.9345 19.3385L28.3733 10.7601C28.341 10.5205 28.2363 10.2973 28.0739 10.1217C27.9114 9.94614 27.6993 9.82695 27.4674 9.78086L27.374 9.76637C27.157 9.74144 26.9376 9.78123 26.7422 9.88094C26.5468 9.98066 26.3838 10.1361 26.2727 10.3284L24.6647 13.0981L22.3999 4.92235L22.55 4.95132C24.9928 5.48441 27.2611 6.65036 29.1375 8.33752C31.0139 10.0247 32.4357 12.1765 33.2667 14.5871C34.0977 16.9976 34.3101 19.5861 33.8835 22.1048C33.457 24.6234 32.4058 26.9878 30.8306 28.9715" fill="#F0F1F1"/>
</svg>
