<svg width="36" height="36" viewBox="0 0 36 36" fill="none" xmlns="http://www.w3.org/2000/svg">
<path d="M20.2166 18.1245C20.276 18.1245 20.3383 18.1245 20.3978 18.1419H20.4827C20.8956 18.1416 21.3002 18.0228 21.6505 17.799C22.0008 17.5752 22.2828 17.2554 22.4644 16.8758C22.498 16.7993 22.5153 16.7163 22.5153 16.6324C22.5153 16.5486 22.498 16.4656 22.4644 16.3891C22.4328 16.3121 22.3854 16.2429 22.3253 16.1864C22.2652 16.1299 22.1938 16.0874 22.1162 16.0617C22.0587 16.042 21.9984 16.0322 21.9378 16.0327C21.829 16.0319 21.7223 16.0632 21.6305 16.1228C21.5386 16.1824 21.4654 16.2678 21.4197 16.3688C21.3328 16.5487 21.1984 16.7001 21.0319 16.8061C20.8653 16.912 20.6732 16.9683 20.477 16.9685H20.4374C20.2099 16.9607 19.9916 16.875 19.8174 16.7252C19.7116 16.6375 19.5798 16.5895 19.4437 16.589C19.2997 16.5888 19.161 16.6447 19.0559 16.7454C18.9956 16.8018 18.9479 16.8709 18.9161 16.9479C18.8844 17.0249 18.8693 17.108 18.8719 17.1916C18.8751 17.2754 18.8954 17.3576 18.9315 17.433C18.9676 17.5083 19.0186 17.5751 19.0814 17.6291C19.4049 17.9032 19.7993 18.0753 20.2166 18.1245Z" fill="#1A1C1C"/>
<path d="M33.4069 10.6239C32.2664 8.81062 30.786 7.24663 29.0512 6.02234C27.3165 4.79806 25.3619 3.93775 23.3003 3.49116L23.1276 3.45639C23.0843 3.45353 23.0408 3.45353 22.9974 3.45639L22.6124 1.38494C22.5391 0.981777 22.3255 0.619477 22.0112 0.365194C21.6968 0.11091 21.303 -0.0181096 20.9028 0.00205082C20.5026 0.0222112 20.1231 0.190185 19.8346 0.474834C19.5462 0.759483 19.3684 1.1415 19.3341 1.55007L19.1926 3.15509C14.7225 3.3521 10.4166 5.38879 7.58557 8.96386C7.38282 9.23877 7.21094 9.53615 7.07317 9.85039C6.35978 10.0341 5.73297 10.4703 5.3038 11.0817C5.16194 11.0643 5.0192 11.0556 4.87633 11.0556C4.19415 11.0538 3.52643 11.2567 2.95582 11.6393C2.38521 12.0219 1.93676 12.5674 1.666 13.2082L1.63486 13.2864C1.48397 13.6454 1.4762 14.0506 1.61319 14.4154C1.75018 14.7803 2.02108 15.0758 2.36808 15.2391L2.93428 15.4998L2.41338 17.3047C1.93211 17.1802 1.40838 17.0527 1.11679 17.2468C0.825198 17.4409 0.709128 17.8697 0.570411 18.2927L0.471326 18.7475C0.460082 18.8001 0.451577 18.8533 0.445847 18.9069C0.284481 20.3554 1.20738 21.5606 2.68798 21.804L4.10347 22.0474C4.09783 22.1197 4.09783 22.1923 4.10347 22.2646C4.5251 24.8027 5.52156 27.2045 7.01306 29.2777C8.50456 31.3509 10.4497 33.038 12.6927 34.2038C12.9021 34.3139 13.9213 34.7832 14.1902 34.8788C14.968 35.1946 15.7688 35.4474 16.5853 35.635C17.688 35.8761 18.8123 35.9985 19.94 36C24.0011 35.9981 27.91 34.4179 30.876 31.579C31.1789 31.2892 32.1245 30.2608 32.3906 29.9305C34.5345 27.2371 35.788 23.9169 35.9706 20.448C36.1533 16.9791 35.2556 13.5404 33.4069 10.6268V10.6239ZM20.7893 1.67175C20.792 1.62259 20.8125 1.57621 20.8466 1.54151C20.8808 1.50681 20.9262 1.48623 20.9743 1.48372C21.0224 1.48121 21.0696 1.49694 21.1071 1.52789C21.1445 1.55885 21.1694 1.60286 21.1771 1.65147L22.0264 6.17102C22.0264 6.17102 20.6675 5.90448 20.5062 5.03534L20.7893 1.67175ZM20.3703 6.51578C20.4685 6.62053 20.5745 6.71739 20.6873 6.80549C20.9423 7.00194 21.2301 7.1492 21.5366 7.24006C21.716 7.29467 21.8998 7.33249 22.0858 7.35305H22.2161L22.9295 9.78086C22.4875 9.77884 22.0529 9.6654 21.664 9.45058C21.2114 9.24572 20.8155 8.92917 20.5118 8.52929C20.441 8.42884 20.3758 8.32438 20.3165 8.2164L20.2372 8.07154L20.1721 7.93827L20.3703 6.51578ZM19.9343 10.4733L20.0447 9.46797C20.107 9.55488 20.1778 9.6389 20.2514 9.72291C20.325 9.80693 20.4042 9.89385 20.4863 9.97497C21.0574 10.5552 21.804 10.9198 22.6039 11.0092C22.7002 11.0092 22.7992 11.015 22.9012 11.0266C23.0031 11.0266 23.1078 11.0266 23.2126 11.0266L24.0392 14.0657C24.0424 14.0779 24.0414 14.0907 24.0364 14.1022C24.0314 14.1137 24.0228 14.1231 24.0119 14.1288C24.001 14.1346 23.9885 14.1363 23.9764 14.1338C23.9644 14.1313 23.9536 14.1247 23.9458 14.115C23.7662 13.8824 23.5567 13.6758 23.323 13.5008C23.2145 13.4223 23.1021 13.3498 22.9861 13.2835L21.4036 12.3883L19.8239 11.496L19.9343 10.4733ZM18.0347 14.2656L18.884 12.7273L22.3463 14.7118C22.5558 14.8311 22.7396 14.9926 22.8865 15.1865C23.0335 15.3804 23.1406 15.6027 23.2015 15.8401C23.2623 16.0774 23.2756 16.3249 23.2405 16.5677C23.2054 16.8104 23.1227 17.0434 22.9974 17.2526L22.7143 17.7451C22.3951 18.2745 21.8869 18.6556 21.2975 18.8076C20.7081 18.9596 20.084 18.8705 19.5578 18.5592L19.0822 18.2695C18.4286 17.8767 17.9524 17.2365 17.7564 16.4873C17.5604 15.7381 17.6604 14.94 18.0347 14.2656ZM13.0975 12.8953L13.8902 11.496C14.0288 11.2508 14.2346 11.0527 14.4822 10.926C14.7298 10.7993 15.0082 10.7497 15.283 10.7833C15.4682 10.8044 15.6473 10.8635 15.8096 10.9571L18.6405 12.5824L13.0975 12.8953ZM19.3992 4.63553C19.3285 5.26131 19.2747 5.70458 19.2719 5.70458L19.0369 7.24296L18.632 10.8325L16.5371 9.6302C16.205 9.43722 15.8381 9.31502 15.4585 9.27096C14.8971 9.2019 14.3282 9.3022 13.8217 9.55955C13.3153 9.8169 12.8933 10.2201 12.6077 10.7195L11.733 12.2869C11.733 12.2869 10.2269 10.1401 8.70664 9.91992C10.0307 8.32524 11.6659 7.03139 13.5073 6.12137C15.3486 5.21135 17.3555 4.70525 19.3992 4.63553ZM13.3494 32.8856C11.3111 31.8217 9.54387 30.2851 8.18876 28.3984C6.83364 26.5116 5.92812 24.3268 5.54444 22.0184L7.20339 22.3342C8.812 22.6401 10.3569 23.2281 11.7698 24.0725C12.4549 24.481 13.0607 24.8489 13.1683 24.9416L13.7118 25.3675C14.5919 26.0546 15.588 26.5702 16.6504 26.8885C16.6504 26.8885 14.7876 30.3187 13.3494 32.8856ZM29.8824 30.4809C27.1821 33.0555 23.6305 34.4899 19.94 34.4964C18.1518 34.495 16.3792 34.1561 14.7111 33.4969L18.2669 27.2159C19.4474 27.3723 20.3052 27.1116 20.9308 26.3467C21.0376 26.2492 21.103 26.1129 21.113 25.9668C21.1231 25.8207 21.077 25.6763 20.9846 25.5645C20.6222 25.0604 20.056 25.5384 20.056 25.5384C19.4728 25.944 19.0878 26.0078 18.2442 25.8281C16.937 25.5563 15.7062 24.9869 14.6432 24.1623L14.0402 23.6871C13.476 23.2453 12.8733 22.8574 12.2397 22.5283L12.0104 22.4095C11.0048 21.9119 9.9354 21.5627 8.83403 21.3723L2.92861 20.3496C2.64552 20.3033 1.79622 20.0599 1.89531 19.0807L1.99439 18.6229C3.37625 19.0912 4.79796 19.4258 6.24086 19.6225L6.73345 19.6978C7.01655 19.7412 7.29964 19.7789 7.58274 19.8108C8.43733 19.9194 9.29778 19.9726 10.1589 19.9701C10.3378 19.9644 10.515 19.9332 10.6855 19.8774L11.0705 19.7557C11.4904 19.6293 11.8589 19.3671 12.1208 19.0083C12.318 18.7349 12.4449 18.4153 12.49 18.0786C12.535 17.742 12.4966 17.3992 12.3784 17.0817C12.2484 16.7403 12.032 16.4404 11.7515 16.2129C11.4709 15.9853 11.1362 15.8382 10.7817 15.7866C9.85602 15.7548 4.76026 14.9175 2.93145 14.1295L3.03053 13.8166C3.23042 13.3381 3.5983 12.9536 4.0616 12.7391C4.52489 12.5245 5.04993 12.4955 5.53311 12.6577L5.75676 12.733C5.82067 12.7488 5.88781 12.7432 5.94841 12.7171C6.00901 12.6911 6.05989 12.6459 6.09365 12.5882L6.20406 12.3767C6.34528 12.1072 6.54136 11.8718 6.77907 11.6864C7.01678 11.501 7.29058 11.37 7.58199 11.3022C7.8734 11.2344 8.17564 11.2313 8.46831 11.2932C8.76097 11.3551 9.03725 11.4806 9.2785 11.6611C9.39414 11.7467 9.50129 11.8438 9.5984 11.9508L9.66634 12.0232C9.69356 12.0476 9.71823 12.0748 9.73995 12.1044L11.0903 13.7441C11.2001 13.8766 11.3381 13.9815 11.4936 14.0508C11.6492 14.1201 11.8182 14.152 11.9877 14.144L16.8655 13.9238C16.425 14.8636 16.3455 15.9385 16.6427 16.9354C16.94 17.9324 17.5924 18.7787 18.4707 19.3067L18.9519 19.5964C19.3663 19.8434 19.826 20.0003 20.3023 20.057C20.9666 20.135 21.6388 20.0178 22.2404 19.7192C22.842 19.4206 23.3481 18.953 23.6995 18.3709L27.4562 11.9508L26.9721 19.4834L29.8625 30.4925L29.8824 30.4809ZM3.82887 17.6727L4.33278 15.833C5.05468 16.0068 5.95776 16.2125 6.88066 16.4124L7.38174 16.5138C9.18791 16.847 10.6232 16.9745 10.6232 16.9745C10.7654 16.997 10.8992 17.0577 11.0111 17.1503C11.123 17.2429 11.2089 17.3642 11.2602 17.5017C11.3368 17.704 11.3368 17.9282 11.2602 18.1304C11.2007 18.2985 11.0507 18.678 10.3118 18.7099C9.27567 18.791 6.39939 18.3709 3.82887 17.6727ZM31.0487 29.2612C31.0487 29.1917 28.3621 19.3298 28.3621 19.3385L28.8009 10.7601C28.7686 10.5205 28.6639 10.2973 28.5015 10.1217C28.339 9.94614 28.127 9.82695 27.895 9.78086L27.8016 9.76637C27.5846 9.74144 27.3652 9.78123 27.1698 9.88094C26.9745 9.98066 26.8114 10.1361 26.7003 10.3284L25.0923 13.0981L22.8276 4.92235L22.9776 4.95132C25.4205 5.48441 27.6887 6.65036 29.5651 8.33752C31.4415 10.0247 32.8633 12.1765 33.6943 14.5871C34.5253 16.9976 34.7377 19.5861 34.3112 22.1048C33.8846 24.6234 32.8334 26.9878 31.2582 28.9715" fill="#1A1C1C"/>
</svg>
