<svg width="26" height="26" viewBox="0 0 26 26" fill="none" xmlns="http://www.w3.org/2000/svg">
<path d="M11.7013 0.311493C11.7319 -0.0869328 12.3072 -0.110783 12.3707 0.283739L12.9033 3.59343C13.5909 7.86714 17.1174 11.1129 21.4334 11.4445L24.7758 11.7012C25.1743 11.7319 25.1981 12.3072 24.8035 12.3707L21.4938 12.9032C17.2202 13.5909 13.9744 17.1174 13.6428 21.4333L13.3861 24.7758C13.3554 25.1742 12.7801 25.1981 12.7166 24.8035L12.1841 21.4938C11.4964 17.2201 7.9699 13.9744 3.65394 13.6428L0.311521 13.3861C-0.0869045 13.3554 -0.110755 12.7801 0.283767 12.7166L3.59346 12.184C7.86717 11.4964 11.1129 7.96987 11.4445 3.65391L11.7013 0.311493Z" fill="white"/>
</svg>
