<svg width="30" height="30" viewBox="0 0 30 30" fill="none" xmlns="http://www.w3.org/2000/svg">
<path d="M17.5143 0.2682C17.6751 -0.181348 18.3457 -0.0275947 18.2946 0.44712L17.8657 4.42945C17.3119 9.57172 20.3539 14.4236 25.2237 16.1654L28.9951 17.5143C29.4447 17.6751 29.2909 18.3457 28.8162 18.2946L24.8338 17.8657C19.6916 17.3119 14.8397 20.3539 13.098 25.2237L11.7491 28.9951C11.5882 29.4447 10.9176 29.291 10.9687 28.8162L11.3976 24.8339C11.9514 19.6916 8.90945 14.8398 4.03956 13.098L0.268172 11.7491C-0.181376 11.5882 -0.027623 10.9176 0.447092 10.9687L4.42943 11.3976C9.5717 11.9514 14.4236 8.90948 16.1654 4.03959L17.5143 0.2682Z" fill="url(#paint0_linear_730_1536)"/>
<defs>
<linearGradient id="paint0_linear_730_1536" x1="0.0110336" y1="11.2794" x2="29.2523" y2="17.9839" gradientUnits="userSpaceOnUse">
<stop stop-color="#2461EB"/>
<stop offset="1" stop-color="#D4C6FB"/>
</linearGradient>
</defs>
</svg>
