<svg width="120" height="120" viewBox="0 0 120 120" fill="none" xmlns="http://www.w3.org/2000/svg">
<path d="M74.5381 17.039L71.4552 0.610725C71.4274 0.434007 71.3368 0.274049 71.201 0.161521C71.0651 0.0489922 70.8935 -0.00818728 70.7191 0.000947314C70.5446 0.0100819 70.3796 0.084885 70.2556 0.211017C70.1317 0.33715 70.0575 0.505734 70.0474 0.684442L69.0198 12.9109C69.6055 16.0702 74.5381 17.039 74.5381 17.039Z" fill="white"/>
<path d="M68.3841 24.4734C68.5993 24.8659 68.8361 25.2456 69.0931 25.6107C70.1927 27.0629 71.6261 28.2134 73.2652 28.9596C74.679 29.7458 76.2605 30.1618 77.869 30.1706L75.3205 21.3457H74.8478C74.1725 21.271 73.5052 21.1335 72.8542 20.935C71.7415 20.6047 70.6968 20.0694 69.7714 19.3553C69.3619 19.0351 68.9771 18.683 68.6204 18.3022L67.9114 23.473L68.1477 23.9574L68.3841 24.4734Z" fill="white"/>
<path d="M78.068 42.8288C78.489 43.0697 78.8972 43.3334 79.2909 43.6187C80.1385 44.2522 80.896 45.0036 81.5414 45.8512C81.5646 45.8987 81.6052 45.9348 81.6543 45.9516C81.7035 45.9684 81.7571 45.9645 81.8034 45.9407C81.8498 45.917 81.885 45.8754 81.9014 45.825C81.9178 45.7747 81.9139 45.7197 81.8908 45.6722L78.8901 34.6252C78.5099 34.6252 78.1297 34.6252 77.7598 34.6252C77.3898 34.6252 77.0302 34.6252 76.6808 34.562C73.7836 34.2515 71.0744 32.9449 68.9942 30.8551C68.6962 30.5603 68.4085 30.2549 68.1413 29.9389C67.8741 29.623 67.6172 29.3281 67.3911 29.0122L66.9904 32.6665L66.5896 36.3207L72.3237 39.5642L78.068 42.8288Z" fill="white"/>
<path d="M94.3669 38.0474L80.7305 61.384C79.4548 63.4998 77.6177 65.1998 75.434 66.2851C73.2503 67.3705 70.8103 67.7964 68.3991 67.513C66.6701 67.3067 65.0014 66.7367 63.4974 65.8386L61.7504 64.7855C58.5625 62.8664 56.1944 59.7901 55.1152 56.1662C54.0361 52.5423 54.3247 48.6351 55.9239 45.219L38.2181 46.0193C37.6028 46.0484 36.9892 45.9325 36.4245 45.6806C35.8598 45.4287 35.359 45.0474 34.9605 44.566L30.0588 38.6055C29.98 38.498 29.8904 38.3992 29.7916 38.3106L29.545 38.0474C29.1925 37.6582 28.8036 37.3055 28.3838 36.9943C27.5081 36.3381 26.5053 35.8821 25.4429 35.657C24.3806 35.432 23.2835 35.4431 22.2257 35.6896C21.1679 35.9362 20.174 36.4124 19.3112 37.0862C18.4483 37.76 17.7365 38.6157 17.2239 39.5954L16.8231 40.3642C16.6984 40.604 16.4946 40.7907 16.248 40.891C16.0015 40.9912 15.7283 40.9986 15.477 40.9118L14.6652 40.638C12.9113 40.0484 11.0054 40.1539 9.32371 40.9337C7.64201 41.7135 6.30662 43.111 5.58105 44.8504L5.22138 45.9877C11.8598 48.8206 30.3568 51.8956 33.7171 52.0114C35.0037 52.1989 36.2186 52.7336 37.237 53.5608C38.2555 54.388 39.041 55.4779 39.5129 56.7188C39.9419 57.8729 40.0812 59.119 39.9178 60.3427C39.7544 61.5663 39.2936 62.7283 38.5777 63.7219C37.627 65.0261 36.2893 65.9794 34.7653 66.4389L33.3677 66.8812C32.749 67.0841 32.1057 67.1976 31.4564 67.2182C28.3305 67.2272 25.2072 67.0338 22.1051 66.639C21.1494 66.5231 20.1218 66.3862 19.0222 66.2283L17.2342 65.9545C11.9966 65.2396 6.83599 64.0232 1.81998 62.3213L1.46031 63.9852C1.05954 67.5868 4.23487 68.4292 5.21111 68.5977L26.6471 72.3152C30.645 73.0071 34.5269 74.2764 38.177 76.0853L39.0093 76.517C41.3091 77.7132 43.4968 79.1232 45.545 80.7294L47.7338 82.4565C51.5807 85.4611 56.0373 87.5413 60.7742 88.5434C63.857 89.2068 65.2341 88.9752 67.3509 87.4903C67.3509 87.4903 69.4062 85.7527 70.7215 87.5851C71.0569 87.9917 71.2242 88.5163 71.1877 89.0474C71.1512 89.5785 70.9139 90.074 70.5263 90.4284C68.2552 93.1665 65.1416 94.1143 60.8564 93.5877L48.0318 116.366C54.0868 118.763 60.521 119.994 67.0118 119.999C80.3975 119.968 93.2772 114.754 103.071 105.403L92.5789 65.3858L94.3669 38.0474Z" fill="white"/>
<path d="M32.0656 62.6694C34.7476 62.5009 35.2923 61.1214 35.5081 60.5632C35.7863 59.8282 35.7863 59.0131 35.5081 58.278C35.3295 57.768 35.0208 57.3164 34.6142 56.9701C34.2076 56.6238 33.7179 56.3954 33.1959 56.3087C33.1959 56.3087 28.0579 55.8454 21.4503 54.6027L19.6314 54.2341C16.3122 53.5496 13.0342 52.8019 10.3829 52.1279L8.5332 58.8467C17.8639 61.3847 28.3045 62.9116 32.0656 62.6694Z" fill="white"/>
<path d="M60.1019 46.4625C58.7366 48.9158 58.3701 51.8218 59.0819 54.5502C59.7936 57.2786 61.5263 59.6095 63.904 61.0374L65.6304 62.0905C67.5405 63.2221 69.8059 63.546 71.9453 62.9935C74.0848 62.441 75.9297 61.0554 77.0883 59.1312L78.1159 57.341C78.5709 56.5806 78.871 55.7337 78.9983 54.8513C79.1256 53.9689 79.0774 53.0693 78.8566 52.2065C78.6358 51.3437 78.247 50.5356 77.7135 49.8308C77.18 49.126 76.513 48.5391 75.7524 48.1053V48.1053L63.1847 40.8916L60.1019 46.4625ZM65.2399 54.8873C65.7339 54.8891 66.2125 55.0637 66.5964 55.3822C67.2287 55.927 68.0212 56.2385 68.8469 56.2668H68.9907C69.7026 56.266 70.4001 56.0615 71.0047 55.6764C71.6093 55.2913 72.0969 54.7408 72.4127 54.0869C72.5822 53.722 72.8506 53.4147 73.1859 53.2019C73.5212 52.989 73.9091 52.8795 74.3035 52.8864C74.5236 52.8836 74.7425 52.9193 74.9509 52.9917C75.2328 53.085 75.4917 53.2396 75.7099 53.445C75.9281 53.6504 76.1003 53.9017 76.2149 54.1817C76.3368 54.4599 76.3998 54.7614 76.3998 55.0663C76.3998 55.3712 76.3368 55.6727 76.2149 55.9509C75.5557 57.3305 74.5322 58.4931 73.2607 59.3066C71.9892 60.1201 70.5205 60.5519 69.0216 60.5529H68.7133C68.4975 60.5529 68.2714 60.5529 68.0556 60.4897C66.5444 60.3092 65.1167 59.6837 63.9451 58.6889C63.7174 58.4927 63.5321 58.25 63.4011 57.9761C63.2702 57.7023 63.1965 57.4035 63.1847 57.0988C63.1753 56.7951 63.2301 56.4929 63.3454 56.2129C63.4607 55.933 63.6338 55.682 63.8527 55.477C64.2265 55.1182 64.7176 54.9154 65.2297 54.9083L65.2399 54.8873Z" fill="white"/>
<path d="M52.0198 34.4358C51.4307 34.0955 50.7806 33.8806 50.1085 33.8039C49.1119 33.6809 48.1021 33.8597 47.2036 34.3182C46.3051 34.7767 45.5573 35.4949 45.0526 36.384L42.1753 41.481L62.3165 40.3436L52.0198 34.4358Z" fill="white"/>
<g opacity="0.64">
<path opacity="0.64" d="M91.5802 32.1521C91.9834 31.4529 92.5753 30.888 93.2845 30.5256C93.9937 30.1631 94.7901 30.0185 95.5777 30.1091L95.9167 30.1618C96.7587 30.3293 97.5285 30.7626 98.1182 31.4009C98.7078 32.0392 99.0879 32.8505 99.2051 33.7212L97.6123 64.9035C97.6123 64.9035 107.364 100.709 107.364 100.972L108.094 99.919C113.819 92.7102 117.642 84.1154 119.196 74.9583C120.751 65.8011 119.984 56.3883 116.97 47.6218C113.957 38.8553 108.797 31.0288 101.985 24.8921C95.1728 18.7555 86.9372 14.5143 78.0671 12.575L77.5225 12.4697L85.7434 42.1881L91.5802 32.1521Z" fill="white"/>
<path opacity="0.64" d="M37.2271 39.3326L40.3922 33.6354C41.4288 31.8199 42.9605 30.3544 44.7989 29.4189C46.6373 28.4835 48.7024 28.1189 50.7403 28.3699C52.1172 28.5268 53.4489 28.9674 54.6555 29.6652L62.2598 34.0356L63.7396 20.935L64.5822 15.301C64.5822 15.301 64.7877 13.6897 65.0447 11.415C57.6248 11.6752 50.3401 13.5221 43.6578 16.8373C36.9755 20.1524 31.0433 24.8627 26.2419 30.6657C31.7602 31.466 37.2271 39.3326 37.2271 39.3326Z" fill="white"/>
<path opacity="0.64" d="M44.4077 86.8384L42.4449 85.2904C42.0544 84.985 39.8553 83.6475 37.3685 82.1311C32.2398 79.062 26.6322 76.9244 20.7931 75.8125L14.761 74.6436C16.1597 83.0271 19.4493 90.9601 24.368 97.8107C29.2866 104.661 35.6983 110.24 43.0923 114.103C48.3126 104.773 55.0743 92.3251 55.0743 92.3251C51.2209 91.1809 47.6054 89.3212 44.4077 86.8384V86.8384Z" fill="white"/>
</g>
</svg>
