<svg width="681" height="1080" viewBox="0 0 681 1080" fill="none" xmlns="http://www.w3.org/2000/svg">
<path d="M900.107 -191.171C1024.78 -10.2226 1192.92 141.146 1300.36 334.505C1346.45 417.449 1383.69 518.032 1301.67 586.843C1226.36 650.027 1119.71 649.901 1026.33 638.549C871.194 619.689 717.664 529.874 609.034 418.106C570.09 378.037 503.752 313.647 487.909 257.433C475.227 212.435 545.971 250.648 555.173 256.746C646.428 317.218 728.818 396.775 786.056 490.485C843.292 584.193 916.45 705.156 878.224 818.405C803.991 1038.32 550.839 957.681 405.666 862.93C341.286 820.911 281.038 768.829 232.649 708.597C194.996 661.728 267.715 758.619 270.28 762.541C347.438 880.498 417.941 1003.1 456.364 1139.68C489.046 1255.85 502.903 1412.75 405.084 1501.07C280.227 1613.79 130.704 1611 1.00005 1510.64" stroke="url(#paint0_linear_730_1538)" stroke-width="2" stroke-linecap="round"/>
<defs>
<linearGradient id="paint0_linear_730_1538" x1="1269.38" y1="282.101" x2="-200.879" y2="1180.13" gradientUnits="userSpaceOnUse">
<stop stop-color="#2461EB"/>
<stop offset="1" stop-color="#D4C6FB"/>
</linearGradient>
</defs>
</svg>
