<svg width="529" height="1080" viewBox="0 0 529 1080" fill="none" xmlns="http://www.w3.org/2000/svg">
<path d="M162.561 1302.67C-12.7171 1170.15 -219.956 1079.38 -382.786 929.66C-452.634 865.434 -519.632 781.679 -463.433 690.553C-411.83 606.879 -310.563 573.439 -218.357 554.829C-65.1648 523.91 108.829 560.847 247.113 632.752C296.687 658.53 379.917 698.773 412.646 747.145C438.844 785.865 359.669 771.857 349.015 768.964C243.367 740.282 140.127 690.694 56.3069 619.757C-27.5099 548.822 -135.018 457.027 -134.371 337.501C-133.117 105.395 132.552 102.277 300.166 146.529C374.498 166.154 448.075 196.631 512.96 238.575C563.449 271.213 463.935 202.129 460.265 199.214C349.908 111.53 244.404 17.3398 164.953 -100.207C97.3732 -200.192 34.8452 -344.76 99.9035 -459.37C182.944 -605.657 325.75 -650.058 480.443 -595.622" stroke="url(#paint0_linear_730_1539)" stroke-width="2" stroke-linecap="round"/>
<defs>
<linearGradient id="paint0_linear_730_1539" x1="-336.886" y1="969.652" x2="776.077" y2="-345.425" gradientUnits="userSpaceOnUse">
<stop stop-color="#2461EB"/>
<stop offset="1" stop-color="#D4C6FB"/>
</linearGradient>
</defs>
</svg>
