<svg width="390" height="436" viewBox="0 0 390 436" fill="none" xmlns="http://www.w3.org/2000/svg">
<path d="M381.847 -53.793C396.41 23.4698 429.483 97.3565 436.611 176.183C439.669 209.996 437.275 248.298 400.471 258.923C366.676 268.68 331.806 253.184 302.903 235.938C254.883 207.286 217.671 155.655 198.33 103.348C191.397 84.5964 179.026 53.918 181.989 33.2319C184.361 16.6733 201.967 39.4264 204.094 42.755C225.184 75.7622 240.609 113.728 245.754 152.68C250.899 191.63 257.303 241.805 228.385 273.314C172.231 334.502 101.1 271.435 67.338 219.4C52.3656 196.324 40.2032 170.554 33.1013 143.837C27.5752 123.048 37.324 165.283 37.5949 166.938C45.7429 216.709 51.0403 267.036 43.8181 317.284C37.6749 360.026 19.4711 413.363 -25.3281 428.079C-82.5096 446.862 -131.021 424.28 -158.91 372.654" stroke="url(#paint0_linear_730_1669)" stroke-width="2" stroke-linecap="round"/>
<defs>
<linearGradient id="paint0_linear_730_1669" x1="434.069" y1="154.549" x2="-177.057" y2="235.271" gradientUnits="userSpaceOnUse">
<stop stop-color="#2461EB"/>
<stop offset="1" stop-color="#D4C6FB"/>
</linearGradient>
</defs>
</svg>
